# xmcd CD database file
#
# Track frame offsets:
#	150
#	26986
#	62924
#	105008
#	145541
#	165899
#	196299
#	217372
#
# Disc length: 3276 seconds
#
# Revision: 0
# Processed by: cddbd v1.5.2PL0 Copyright (c) Steve Scherf et al.
# Submitted via: CDex 1.51
#
DISCID=6a0cca08
DTITLE=No Tango - No Tango
DYEAR=2008
DGENRE=Jazz
TTITLE0=Mr. G
TTITLE1=11-10
TTITLE2=Nemioke
TTITLE3=Sayo
TTITLE4=3&5
TTITLE5=Moderate moods
TTITLE6=Whole tone shit
TTITLE7=The bitter bit
EXTD=YEAR: 2008
EXTT0=
EXTT1=
EXTT2=
EXTT3=
EXTT4=
EXTT5=
EXTT6=
EXTT7=
PLAYORDER=
